<?xml version="1.0" encoding="utf-8"?>
<!-- Generator: Adobe Illustrator 22.0.1, SVG Export Plug-In . SVG Version: 6.00 Build 0)  -->
<svg version="1.1" id="Layer_1" xmlns="http://www.w3.org/2000/svg" xmlns:xlink="http://www.w3.org/1999/xlink" x="0px" y="0px"
	 viewBox="0 0 69.3 135.4" style="enable-background:new 0 0 69.3 135.4;" xml:space="preserve">
<style type="text/css">
	.st0{enable-background:new    ;}
	.st1{fill:#CBCBBA;}
	.st2{fill:#999A8E;}
	.st3{fill:#DDDCC9;}
	.st4{fill:#C35B4C;}
	.st5{fill:#944337;}
	.st6{fill:#D46453;}
	.st7{fill:#833E42;}
	.st8{fill:#6D3234;}
	.st9{fill:#8B4346;}
	.st10{fill:#010101;}
</style>
<g id="NE_Isometric">
	<g>
		<g>
			<g class="st0">
				<g>
					<polygon class="st1" points="47,112.3 47.1,119.7 34.2,127.1 34.1,119.7 					"/>
				</g>
				<g>
					<polygon class="st2" points="34.2,127.1 27.2,123 27.1,115.6 34.1,119.7 					"/>
				</g>
				<g>
					<polygon class="st3" points="34.1,119.7 27.1,115.6 40,108.2 47,112.3 					"/>
				</g>
			</g>
		</g>
	</g>
	<g>
		<g>
			<g class="st0">
				<g>
					<polygon class="st4" points="40.4,100.2 40.5,115 34,118.7 34,103.9 					"/>
				</g>
				<g>
					<polygon class="st5" points="34,118.7 29,115.8 29,101 34,103.9 					"/>
				</g>
				<g>
					<polygon class="st6" points="34,103.9 29,101 35.4,97.3 40.4,100.2 					"/>
				</g>
			</g>
		</g>
	</g>
	<g>
		<g>
			<g class="st0">
				<g>
					<polygon class="st1" points="59.6,120.6 59.7,128 46.8,135.4 46.7,128 					"/>
				</g>
				<g>
					<polygon class="st2" points="46.8,135.4 39.8,131.3 39.7,123.9 46.7,128 					"/>
				</g>
				<g>
					<polygon class="st3" points="46.7,128 39.7,123.9 52.6,116.5 59.6,120.6 					"/>
				</g>
			</g>
		</g>
	</g>
	<g>
		<g>
			<g class="st0">
				<g>
					<polygon class="st4" points="52.9,108.5 53,123.3 46.5,127 46.5,112.2 					"/>
				</g>
				<g>
					<polygon class="st5" points="46.5,127 41.5,124.1 41.5,109.3 46.5,112.2 					"/>
				</g>
				<g>
					<polygon class="st6" points="46.5,112.2 41.5,109.3 47.9,105.6 52.9,108.5 					"/>
				</g>
			</g>
		</g>
	</g>
	<g>
		<g>
			<g class="st0">
				<g>
					<polygon class="st4" points="62.1,51.5 62.2,103.3 36.4,118.2 36.3,66.4 					"/>
				</g>
				<g>
					<polygon class="st5" points="36.4,118.2 16.4,106.6 16.3,54.8 36.3,66.4 					"/>
				</g>
				<g>
					<polygon class="st6" points="36.3,66.4 16.3,54.8 42.1,39.9 62.1,51.5 					"/>
				</g>
			</g>
		</g>
	</g>
	<g>
		<g>
			<g class="st0">
				<g>
					<polygon class="st1" points="62.8,45.6 62.8,48.7 56.4,52.4 56.4,49.3 					"/>
				</g>
				<g>
					<polygon class="st2" points="56.4,52.4 42.4,44.3 42.4,41.1 56.4,49.3 					"/>
				</g>
				<g>
					<polygon class="st3" points="56.4,49.3 42.4,41.1 48.8,37.4 62.8,45.6 					"/>
				</g>
			</g>
		</g>
	</g>
	<g>
		<g>
			<g class="st0">
				<g>
					<polygon class="st7" points="62.9,45.8 62.9,46.6 57.6,49.7 57.6,48.8 					"/>
				</g>
				<g>
					<polygon class="st8" points="57.6,49.7 57.4,49.6 57.4,48.7 57.6,48.8 					"/>
				</g>
				<g>
					<polygon class="st9" points="57.6,48.8 57.4,48.7 62.7,45.6 62.9,45.8 					"/>
				</g>
			</g>
		</g>
	</g>
	<g>
		<g>
			<g class="st0">
				<g>
					<polygon class="st1" points="69.3,35.7 69.3,42.2 56.4,49.6 56.4,43.1 					"/>
				</g>
				<g>
					<polygon class="st2" points="56.4,49.6 42.4,41.5 42.4,35 56.4,43.1 					"/>
				</g>
				<g>
					<polygon class="st3" points="56.4,43.1 42.4,35 55.3,27.6 69.3,35.7 					"/>
				</g>
			</g>
		</g>
	</g>
	<g>
		<g>
			<g class="st0">
				<g>
					<polygon class="st7" points="67.7,25.7 67.7,32.3 64.5,34.1 64.5,27.6 					"/>
				</g>
				<g>
					<polygon class="st8" points="64.5,34.1 58.5,30.6 58.5,24.1 64.5,27.6 					"/>
				</g>
				<g>
					<polygon class="st9" points="64.5,27.6 58.5,24.1 61.7,22.2 67.7,25.7 					"/>
				</g>
			</g>
		</g>
	</g>
	<g>
		<g>
			<g class="st0">
				<g>
					<polygon class="st4" points="69.2,28.3 69.3,35.7 56.4,43.2 56.3,35.8 					"/>
				</g>
				<g>
					<polygon class="st5" points="56.4,43.2 42.4,35 42.3,27.6 56.3,35.8 					"/>
				</g>
				<g>
					<polygon class="st6" points="56.3,35.8 42.3,27.6 55.2,20.2 69.2,28.3 					"/>
				</g>
			</g>
		</g>
	</g>
	<g>
		<g>
			<g class="st0">
				<g>
					<polygon class="st4" points="59,23.6 59.1,53.2 39.7,64.4 39.7,34.8 					"/>
				</g>
				<g>
					<polygon class="st5" points="39.7,64.4 19.7,52.8 19.7,23.2 39.7,34.8 					"/>
				</g>
				<g>
					<polygon class="st6" points="39.7,34.8 19.7,23.2 39,12 59,23.6 					"/>
				</g>
			</g>
		</g>
	</g>
	<g>
		<g>
			<g class="st0">
				<g>
					<polygon class="st1" points="55.1,33.9 55.2,40.4 49.5,43.7 49.5,37.2 					"/>
				</g>
				<g>
					<polygon class="st2" points="49.5,43.7 49.1,43.4 49.1,37 49.5,37.2 					"/>
				</g>
				<g>
					<polygon class="st3" points="49.5,37.2 49.1,37 54.7,33.7 55.1,33.9 					"/>
				</g>
			</g>
		</g>
	</g>
	<g>
		<g>
			<g class="st0">
				<g>
					<polygon class="st7" points="42,4.6 42.1,19.5 35.6,23.2 35.6,8.4 					"/>
				</g>
				<g>
					<polygon class="st8" points="35.6,23.2 27.6,18.5 27.6,3.7 35.6,8.4 					"/>
				</g>
				<g>
					<polygon class="st9" points="35.6,8.4 27.6,3.7 34,0 42,4.6 					"/>
				</g>
			</g>
		</g>
	</g>
	<g>
		<g>
			<g class="st0">
				<g>
					<polygon class="st7" points="53.4,12 53.4,26.8 47,30.5 46.9,15.7 					"/>
				</g>
				<g>
					<polygon class="st8" points="47,30.5 39,25.9 38.9,11.1 46.9,15.7 					"/>
				</g>
				<g>
					<polygon class="st9" points="46.9,15.7 38.9,11.1 45.4,7.4 53.4,12 					"/>
				</g>
			</g>
		</g>
	</g>
	<g>
		<g>
			<g class="st0">
				<g>
					<polygon class="st7" points="57.1,84.2 57.2,91.6 50.7,95.3 50.7,87.9 					"/>
				</g>
				<g>
					<polygon class="st8" points="50.7,95.3 46.7,93 46.7,85.6 50.7,87.9 					"/>
				</g>
				<g>
					<polygon class="st9" points="50.7,87.9 46.7,85.6 53.1,81.9 57.1,84.2 					"/>
				</g>
			</g>
		</g>
	</g>
	<g>
		<g>
			<g class="st0">
				<g>
					<polygon class="st4" points="57.1,76.8 57.1,84.2 50.7,87.9 50.7,80.5 					"/>
				</g>
				<g>
					<polygon class="st5" points="50.7,87.9 46.7,85.6 46.7,78.2 50.7,80.5 					"/>
				</g>
				<g>
					<polygon class="st6" points="50.7,80.5 46.7,78.2 53.1,74.4 57.1,76.8 					"/>
				</g>
			</g>
		</g>
	</g>
	<g>
		<g>
			<g class="st0">
				<g>
					<polygon class="st4" points="57.1,62.2 57.1,77 50.7,80.7 50.6,65.9 					"/>
				</g>
				<g>
					<polygon class="st5" points="50.7,80.7 44.7,77.2 44.6,62.4 50.6,65.9 					"/>
				</g>
				<g>
					<polygon class="st6" points="50.6,65.9 44.6,62.4 51.1,58.7 57.1,62.2 					"/>
				</g>
			</g>
		</g>
	</g>
	<g>
		<g>
			<g class="st0">
				<g>
					<polygon class="st7" points="54.7,35.4 54.7,40 50.6,42.4 50.6,37.7 					"/>
				</g>
				<g>
					<polygon class="st8" points="50.6,42.4 50.2,42.1 50.2,37.5 50.6,37.7 					"/>
				</g>
				<g>
					<polygon class="st9" points="50.6,37.7 50.2,37.5 54.3,35.2 54.7,35.4 					"/>
				</g>
			</g>
		</g>
	</g>
	<g>
		<g>
			<g class="st0">
				<g>
					<polygon class="st10" points="54,37.4 54,39.7 52,40.9 52,38.6 					"/>
				</g>
				<g>
					<polygon class="st10" points="52,40.9 51.6,40.6 51.6,38.3 52,38.6 					"/>
				</g>
				<g>
					<polygon class="st10" points="52,38.6 51.6,38.3 53.6,37.2 54,37.4 					"/>
				</g>
			</g>
		</g>
	</g>
	<g>
		<g>
			<g class="st0">
				<g>
					<polygon class="st1" points="53.8,38 53.8,39 53,39.4 53,38.5 					"/>
				</g>
				<g>
					<polygon class="st2" points="53,39.4 52.8,39.3 52.8,38.4 53,38.5 					"/>
				</g>
				<g>
					<polygon class="st3" points="53,38.5 52.8,38.4 53.6,37.9 53.8,38 					"/>
				</g>
			</g>
		</g>
	</g>
	<g>
		<g>
			<g class="st0">
				<g>
					<polygon class="st4" points="34.7,97.1 34.7,111.9 21.9,119.3 21.8,104.5 					"/>
				</g>
				<g>
					<polygon class="st5" points="21.9,119.3 6.9,110.6 6.8,95.8 21.8,104.5 					"/>
				</g>
				<g>
					<polygon class="st6" points="21.8,104.5 6.8,95.8 19.7,88.3 34.7,97.1 					"/>
				</g>
			</g>
		</g>
	</g>
	<g>
		<g>
			<g class="st0">
				<g>
					<polygon class="st4" points="27.9,79.3 28,101.5 15.1,109 15,86.8 					"/>
				</g>
				<g>
					<polygon class="st5" points="15.1,109 0.1,100.3 0,78.1 15,86.8 					"/>
				</g>
				<g>
					<polygon class="st6" points="15,86.8 0,78.1 12.9,70.6 27.9,79.3 					"/>
				</g>
			</g>
		</g>
	</g>
	<g>
		<g>
			<g class="st0">
				<g>
					<polygon class="st1" points="27.9,72 27.9,79.4 15.1,86.8 15,79.4 					"/>
				</g>
				<g>
					<polygon class="st2" points="15.1,86.8 0.1,78.1 0,70.7 15,79.4 					"/>
				</g>
				<g>
					<polygon class="st3" points="15,79.4 0,70.7 12.9,63.3 27.9,72 					"/>
				</g>
			</g>
		</g>
	</g>
	<g>
		<g>
			<g class="st0">
				<g>
					<polygon class="st1" points="27.9,64.7 27.9,72 21.5,75.7 21.5,68.4 					"/>
				</g>
				<g>
					<polygon class="st2" points="21.5,75.7 6.5,67 6.5,59.7 21.5,68.4 					"/>
				</g>
				<g>
					<polygon class="st3" points="21.5,68.4 6.5,59.7 12.9,56 27.9,64.7 					"/>
				</g>
			</g>
		</g>
	</g>
	<g>
		<g>
			<g class="st0">
				<g>
					<polygon class="st1" points="21.4,60.9 21.5,75.7 15,79.5 15,64.7 					"/>
				</g>
				<g>
					<polygon class="st2" points="15,79.5 0,70.8 0,55.9 15,64.7 					"/>
				</g>
				<g>
					<polygon class="st3" points="15,64.7 0,55.9 6.4,52.2 21.4,60.9 					"/>
				</g>
			</g>
		</g>
	</g>
</g>
</svg>
